<svg width="237" height="42" xmlns="http://www.w3.org/2000/svg">
 <style>.st0{fill:#fff}.st1{fill:none}</style>

 <title>АвтоКод</title>
 <g>
  <title>background</title>
  <rect fill="none" id="canvas_background" height="402" width="582" y="-1" x="-1"/>
 </g>
 <g>
  <title>Layer 1</title>
  <path id="svg_1" d="m37,27.3c1.9,0 3.4,-1.5 3.4,-3.4s-1.5,-3.4 -3.4,-3.4c-0.6,0 -0.9,0.1 -1.6,0.4c-0.9,0.6 -1.9,1.7 -1.9,3s1,2.5 1.9,3c0.7,0.2 1.1,0.4 1.6,0.4z" class="st1"/>
  <circle id="svg_2" r="3.4" cy="24.2" cx="10.7" class="st1"/>
  <path id="svg_3" d="m36.8,7.7c-0.7,-1.2 -2.1,-1.7 -3.5,-1.7l-18.6,0c-1.6,0 -3,0.8 -3.7,2l-3.5,8.3l33.1,0c-0.4,-1.3 -0.9,-2.4 -1.4,-3.7l0,-0.1c-1.1,-2.2 -2.1,-4.3 -2.4,-4.8zm0.2,12.8c-0.6,0 -0.9,0.1 -1.6,0.4c-0.9,0.6 -1.9,1.7 -1.9,3s1,2.5 1.9,3c0.6,0.2 1,0.4 1.5,0.4c1.9,0 3.4,-1.5 3.4,-3.4c0.1,-1.9 -1.4,-3.4 -3.3,-3.4z" class="st1"/>
  <circle id="svg_4" r="3.4" cy="24.2" cx="10.7" class="st1"/>
  <path id="svg_5" d="m39.1,12.6c-0.9,-2.3 -1.9,-4.4 -2.3,-4.9c-0.7,-1.2 -2.1,-1.7 -3.5,-1.7l-18.6,0c-1.6,0 -3,0.8 -3.7,2l-3.5,8.3l33.1,0c-0.5,-1.3 -1,-2.4 -1.5,-3.7z" class="st1"/>
  <path id="svg_6" d="m44.6,16.4c-1.6,-3.9 -4,-9.6 -4.5,-10.4l-0.2,-0.4c-1.4,-2.1 -3.9,-3.5 -6.6,-3.5l-18.6,0c-3.7,0 -6.7,2.5 -7.7,5.8l-3.7,8.5c-1.3,0.4 -2.3,1.7 -2.3,3.2l0,11.5c0,1.7 1.5,3.1 3,3.2l0,3.3c0,1.3 1.1,2.1 2.4,2.1l5.1,0c1.3,0 2.2,-0.8 2.2,-2.1l0,-3.3l20.3,0l0,3.2c0,1.3 1,2.2 2.3,2.2l5.1,0c1.3,0 2.6,-1 2.6,-2.2l0,-3.1c1.5,-0.1 3,-1.5 3,-3.2l0,-11.6c0,-1.5 -1.1,-2.7 -2.4,-3.2zm-33.9,11.2c-1.9,0 -3.4,-1.5 -3.4,-3.4s1.5,-3.4 3.4,-3.4s3.4,1.5 3.4,3.4c0.1,1.9 -1.5,3.4 -3.4,3.4zm26.3,-0.3c-0.6,0 -0.9,-0.1 -1.5,-0.4c-0.9,-0.6 -1.9,-1.7 -1.9,-3s1,-2.5 1.9,-3c0.6,-0.2 1,-0.4 1.6,-0.4c1.9,0 3.4,1.5 3.4,3.4c-0.1,1.9 -1.6,3.4 -3.5,3.4zm-1.5,-11l-28.1,0l3.5,-8.3c0.8,-1.3 2.2,-2 3.7,-2l18.6,0c1.5,0 2.8,0.6 3.5,1.7c0.3,0.5 3.3,7.3 3.7,8.6l-4.9,0z" class="st0"/>
 </g>
</svg>